<svg xmlns="http://www.w3.org/2000/svg" viewBox="0 0 430.76 205.7"><defs><style>.cls-1{fill:#7564ac;}.cls-2{fill:#322653;}.cls-3{fill:#fbd1d7;}.cls-4{fill:#4c75ba;}</style></defs><title>logo</title><g id="Layer_3" data-name="Layer 3"><path class="cls-1" d="M72.58,503.72c34.25-79,81.62-124.41,109.43-147,31.89-25.86,63.12-51.18,106.57-51.08,48.53.11,83.71,31.88,113,58.31,64.71,58.45,101.11,140.43,101.79,140,0,0,0-.18-.07-.27-1.19-2.51-72.89-134.22-209.62-137.5C203.84,364.06,118,418.08,72.58,503.72Z" transform="translate(-72.58 -298.29)"/></g><g id="Layer_1" data-name="Layer 1"><path class="cls-2" d="M72.58,503.72C91.1,379.83,119.8,347.25,144.14,342.66c45.62-8.61,75.43,81.23,144.11,81.14,68.47-.09,98-89.46,143.45-80.92,24.33,4.57,53,37.16,71.56,160.84C468,431.31,425.07,385.36,396.41,359.23c-38.29-34.91-67.7-61-108.49-60.94s-70.11,26.06-108.5,61.1C150.74,385.58,107.85,431.51,72.58,503.72Z" transform="translate(-72.58 -298.29)"/><path class="cls-2" d="M624.8,455.17" transform="translate(-72.58 -298.29)"/></g><g id="Layer_2" data-name="Layer 2"><path class="cls-3" d="M317.87,360.74a30,30,0,1,1-29.95-29.94V317.26a43.49,43.49,0,1,0,43.48,43.48Z" transform="translate(-72.58 -298.29)"/><circle class="cls-4" cx="215.34" cy="62.45" r="18.06"/></g></svg>